<?xml version="1.0" encoding="UTF-8" standalone="no"?>
<svg
   version="1.1"
   x="0px"
   y="0px"
   viewBox="0 0 72.670006 79.99968"
   enable-background="new 0 0 100 100"
   xml:space="preserve"
   id="svg4297"
   sodipodi:docname="girl3.svg"
   inkscape:version="1.1 (c68e22c387, 2021-05-23)"
   width="72.670006"
   height="79.99968"
   xmlns:inkscape="http://www.inkscape.org/namespaces/inkscape"
   xmlns:sodipodi="http://sodipodi.sourceforge.net/DTD/sodipodi-0.dtd"
   xmlns="http://www.w3.org/2000/svg"
   xmlns:svg="http://www.w3.org/2000/svg"><defs
     id="defs4301" /><sodipodi:namedview
     id="namedview4299"
     pagecolor="#ffffff"
     bordercolor="#999999"
     borderopacity="1"
     inkscape:pageshadow="0"
     inkscape:pageopacity="0"
     inkscape:pagecheckerboard="0"
     showgrid="false"
     inkscape:zoom="6.496"
     inkscape:cx="32.250616"
     inkscape:cy="51.801108"
     inkscape:window-width="1920"
     inkscape:window-height="1001"
     inkscape:window-x="-9"
     inkscape:window-y="-9"
     inkscape:window-maximized="1"
     inkscape:current-layer="g4291" /><g
     id="g4291"
     transform="translate(-13.894996,-10.789323)"><path
       fill="none"
       d="m 35.833,32.381 c 0.192,0.193 0.391,0.288 0.582,0.254 0.092,-0.016 0.176,-0.061 0.25,-0.131 0.919,2.858 2.672,5.707 4.886,7.425 1.304,1.013 2.769,1.634 4.317,1.634 1.537,0 2.994,-0.614 4.291,-1.616 2.225,-1.717 3.988,-4.574 4.91,-7.443 0.076,0.071 0.158,0.116 0.25,0.131 0.166,0.029 0.336,-0.038 0.502,-0.178 0.42,-0.355 0.813,-1.184 0.992,-2.191 0.236,-1.313 0.025,-2.465 -0.469,-2.695 -0.035,-0.017 -0.072,-0.03 -0.113,-0.038 L 55.11,28.615 41.283,21.498 c -4.521,-0.419 -5.239,5.62 -5.294,6.159 -0.002,0.025 -0.004,0.039 -0.004,0.039 h -10e-4 c -0.16,-0.13 -0.323,-0.19 -0.48,-0.163 -0.069,0.012 -0.133,0.041 -0.192,0.083 -0.438,0.314 -0.612,1.409 -0.391,2.649 0.17,0.943 0.524,1.729 0.912,2.116 z"
       id="path4271" /><path
       fill="none"
       d="M 73.307,53.967 H 17.822 c -1.913,0 -3.468,1.557 -3.468,3.469 l 4.621,26.778 c 0.003,1.95 1.559,3.508 3.471,3.508 h 46.238 c 1.912,0 3.467,-1.558 3.467,-3.469 l 4.627,-26.856 c -0.005,-1.874 -1.559,-3.43 -3.471,-3.43 z M 45.564,72.045 c -0.918,0 -1.663,-0.743 -1.663,-1.664 0,-0.916 0.745,-1.661 1.663,-1.661 0.919,0 1.663,0.745 1.663,1.661 0.001,0.921 -0.743,1.664 -1.663,1.664 z"
       id="path4273" /><path
       fill="none"
       d="m 52.436,40.726 c -0.007,-0.003 -0.014,-0.007 -0.022,-0.011 -1.126,1.112 -2.38,1.992 -3.717,2.522 -0.908,0.361 -1.855,0.559 -2.829,0.559 -0.973,0 -1.92,-0.198 -2.828,-0.559 -1.349,-0.535 -2.612,-1.427 -3.749,-2.552 H 39.29 c 0,1.386 -1.059,2.176 -1.777,2.552 -0.086,0.045 -0.167,0.083 -0.24,0.118 -0.18,0.08 -0.316,0.13 -0.376,0.149 0.043,0.356 0.2,0.699 0.454,1.024 1.189,1.52 4.531,3.715 8.468,3.715 3.939,0 7.278,-2.196 8.47,-3.715 0.252,-0.325 0.41,-0.667 0.453,-1.024 0,-0.011 0,-0.021 0,-0.029 -0.486,-0.18 -2.278,-0.961 -2.306,-2.749 z"
       id="path4275" /><path
       fill="none"
       d="m 75.565,17.79 c -6.066,0 -11.002,4.935 -11.002,11 0,6.065 4.936,11 11.002,11 6.065,0 11,-4.935 11,-11 0,-6.065 -4.934,-11 -11,-11 z m 6.285,17.43 c -0.194,0.19 -0.447,0.285 -0.699,0.285 -0.26,0 -0.519,-0.101 -0.715,-0.301 L 74.85,29.489 C 74.823,29.46 74.811,29.423 74.787,29.391 74.732,29.32 74.676,29.251 74.641,29.167 74.607,29.084 74.599,28.995 74.588,28.906 74.583,28.866 74.565,28.831 74.565,28.79 v -4.836 c 0,-0.552 0.448,-1 1,-1 0.552,0 1,0.448 1,1 v 4.428 l 5.301,5.424 c 0.386,0.395 0.378,1.028 -0.016,1.414 z"
       id="path4277" /><path
       fill="#000000"
       d="M 71.803,88.939 H 19.325 c -0.511,0 -0.925,0.414 -0.925,0.926 0,0.511 0.415,0.924 0.925,0.924 h 52.478 c 0.514,0 0.926,-0.413 0.926,-0.924 0,-0.511 -0.413,-0.926 -0.926,-0.926 z"
       id="path4279"
       style="fill:#f9f9f9;fill-opacity:1" /><path
       fill="#000000"
       d="m 73.307,53.505 h -3.785 c 0.023,0.077 0.049,0.149 0.074,0.229 H 22.04 c 0.024,-0.08 0.049,-0.152 0.075,-0.229 h -4.293 c -2.167,0 -3.93,1.763 -3.927,3.97 l 4.621,26.778 c 0,2.169 1.763,3.93 3.93,3.93 h 46.238 c 2.166,0 3.93,-1.761 3.926,-3.892 L 77.239,57.436 C 77.238,55.268 75.475,53.505 73.307,53.505 Z M 72.15,84.253 c 0,1.911 -1.555,3.469 -3.467,3.469 H 22.445 c -1.912,0 -3.468,-1.558 -3.471,-3.508 L 14.353,57.436 c 0,-1.912 1.556,-3.469 3.468,-3.469 h 55.485 c 1.912,0 3.467,1.557 3.471,3.43 z"
       id="path4281"
       style="fill:#f9f9f9;fill-opacity:1" /><circle
       fill="#000000"
       cx="45.563999"
       cy="70.382004"
       r="1.663"
       id="circle4283"
       style="fill:#f9f9f9;fill-opacity:1" /><path
       fill="#000000"
       d="M 69.596,53.734 C 69.571,53.654 69.545,53.582 69.522,53.505 66.741,44.796 61.92,44.471 60.864,44.224 60.735,44.194 60.608,44.167 60.477,44.143 57.176,41.091 59.43,28.35 59.43,28.35 59.43,8.93 46.293,10.841 46.293,10.841 c -0.159,-0.008 -0.318,-0.015 -0.475,-0.02 -0.158,0.005 -0.316,0.012 -0.477,0.02 0,0 -13.136,-1.911 -13.136,17.509 0,0 2.255,12.74 -1.048,15.792 -0.13,0.024 -0.257,0.051 -0.383,0.081 -1.06,0.248 -5.879,0.572 -8.66,9.281 -0.025,0.077 -0.051,0.149 -0.075,0.229 H 69.596 Z M 54.74,43.504 c -0.043,0.356 -0.201,0.699 -0.453,1.024 -1.191,1.52 -4.53,3.715 -8.47,3.715 -3.938,0 -7.279,-2.196 -8.468,-3.715 -0.253,-0.325 -0.411,-0.667 -0.454,-1.024 0.06,-0.02 0.196,-0.069 0.376,-0.149 0.074,-0.034 0.154,-0.072 0.24,-0.118 0.718,-0.376 1.777,-1.167 1.777,-2.552 h 0.001 c 1.137,1.125 2.4,2.017 3.749,2.552 0.908,0.361 1.855,0.559 2.828,0.559 0.974,0 1.921,-0.198 2.829,-0.559 1.337,-0.53 2.591,-1.41 3.717,-2.522 0.009,0.004 0.016,0.008 0.022,0.011 0.028,1.788 1.82,2.57 2.305,2.749 0.001,0.008 0.001,0.018 0.001,0.029 z M 35.313,27.616 c 0.06,-0.042 0.123,-0.071 0.192,-0.083 0.157,-0.027 0.32,0.032 0.48,0.163 h 10e-4 c 0,0 0.001,-0.014 0.004,-0.039 0.056,-0.539 0.773,-6.578 5.294,-6.159 l 13.827,7.117 1.121,-1.082 c 0.041,0.008 0.078,0.021 0.113,0.038 0.494,0.23 0.705,1.382 0.469,2.695 -0.18,1.008 -0.572,1.836 -0.992,2.191 -0.166,0.141 -0.336,0.208 -0.502,0.178 -0.092,-0.016 -0.174,-0.061 -0.25,-0.131 -0.922,2.869 -2.686,5.727 -4.91,7.443 -1.297,1.002 -2.754,1.616 -4.291,1.616 -1.548,0 -3.013,-0.621 -4.317,-1.634 -2.214,-1.719 -3.967,-4.567 -4.886,-7.425 -0.075,0.071 -0.159,0.116 -0.25,0.131 -0.191,0.033 -0.39,-0.061 -0.582,-0.254 -0.388,-0.387 -0.743,-1.173 -0.912,-2.116 -0.222,-1.24 -0.047,-2.335 0.391,-2.649 z"
       id="path4285"
       style="fill:#f9f9f9" /></g></svg>
